<svg xmlns="http://www.w3.org/2000/svg" viewBox="0 0 128 128" role="img" aria-label="Creation">
  <defs>
    <linearGradient id="g" x1="0%" y1="0%" x2="100%" y2="100%">
      <stop offset="0%" stop-color="#fb923c"/>
      <stop offset="100%" stop-color="#f97316"/>
    </linearGradient>
  </defs>
  <rect width="128" height="128" rx="28" fill="#09090b"/>
  <path fill="url(#g)" d="M78 24c-18 0-32 14-32 32s14 32 32 32c10 0 19-4 26-12l-14-12c-4 4-9 6-14 6-12 0-20-8-20-20s8-20 20-20c5 0 10 2 14 6l14-12c-7-8-16-12-26-12z"/>
  <circle cx="92" cy="36" r="6" fill="#fbbf24"/>
</svg>
