<svg xmlns="http://www.w3.org/2000/svg" viewBox="0 0 920 320" role="img" aria-label="Answer quality proxy by policy">
<rect width="920" height="320" rx="16" fill="#fafafa" stroke="#e5e7eb"/>
<text x="60" y="32" font-family="system-ui,sans-serif" font-size="16" font-weight="600" fill="#0f172a">Answer quality proxy by policy</text>
<line x1="60" y1="264.0" x2="896" y2="264.0" stroke="#e5e7eb"/>
<text x="52" y="268.0" text-anchor="end" font-size="10" fill="#64748b">0%</text>
<line x1="60" y1="210.0" x2="896" y2="210.0" stroke="#e5e7eb"/>
<text x="52" y="214.0" text-anchor="end" font-size="10" fill="#64748b">25%</text>
<line x1="60" y1="156.0" x2="896" y2="156.0" stroke="#e5e7eb"/>
<text x="52" y="160.0" text-anchor="end" font-size="10" fill="#64748b">50%</text>
<line x1="60" y1="102.0" x2="896" y2="102.0" stroke="#e5e7eb"/>
<text x="52" y="106.0" text-anchor="end" font-size="10" fill="#64748b">75%</text>
<line x1="60" y1="48.0" x2="896" y2="48.0" stroke="#e5e7eb"/>
<text x="52" y="52.0" text-anchor="end" font-size="10" fill="#64748b">100%</text>
<rect x="97.6" y="134.9" width="92.0" height="129.1" rx="6" fill="#cbd5e1"/>
<text x="143.6" y="292" text-anchor="middle" font-size="11" fill="#334155">FIFO</text>
<text x="143.6" y="128.9" text-anchor="middle" font-size="10" fill="#1e40af">59.8%</text>
<rect x="264.8" y="134.9" width="92.0" height="129.1" rx="6" fill="#cbd5e1"/>
<text x="310.8" y="292" text-anchor="middle" font-size="11" fill="#334155">Truncation</text>
<text x="310.8" y="128.9" text-anchor="middle" font-size="10" fill="#1e40af">59.8%</text>
<rect x="432.0" y="148.7" width="92.0" height="115.3" rx="6" fill="#93c5fd"/>
<text x="478.0" y="292" text-anchor="middle" font-size="11" fill="#334155">Summarization</text>
<text x="478.0" y="142.7" text-anchor="middle" font-size="10" fill="#1e40af">53.4%</text>
<rect x="599.2" y="134.9" width="92.0" height="129.1" rx="6" fill="#93c5fd"/>
<text x="645.2" y="292" text-anchor="middle" font-size="11" fill="#334155">H2O</text>
<text x="645.2" y="128.9" text-anchor="middle" font-size="10" fill="#1e40af">59.8%</text>
<rect x="766.4" y="134.9" width="92.0" height="129.1" rx="6" fill="#2563eb"/>
<text x="812.4" y="292" text-anchor="middle" font-size="11" fill="#334155">SuperCompress</text>
<text x="812.4" y="128.9" text-anchor="middle" font-size="10" fill="#1e40af">59.8%</text>
</svg>