<svg xmlns="http://www.w3.org/2000/svg" viewBox="0 0 920 320" role="img" aria-label="Useful context retained by policy">
<rect width="920" height="320" rx="16" fill="#fafafa" stroke="#e5e7eb"/>
<text x="60" y="32" font-family="system-ui,sans-serif" font-size="16" font-weight="600" fill="#0f172a">Useful context retained by policy</text>
<line x1="60" y1="264.0" x2="896" y2="264.0" stroke="#e5e7eb"/>
<text x="52" y="268.0" text-anchor="end" font-size="10" fill="#64748b">0%</text>
<line x1="60" y1="210.0" x2="896" y2="210.0" stroke="#e5e7eb"/>
<text x="52" y="214.0" text-anchor="end" font-size="10" fill="#64748b">18%</text>
<line x1="60" y1="156.0" x2="896" y2="156.0" stroke="#e5e7eb"/>
<text x="52" y="160.0" text-anchor="end" font-size="10" fill="#64748b">35%</text>
<line x1="60" y1="102.0" x2="896" y2="102.0" stroke="#e5e7eb"/>
<text x="52" y="106.0" text-anchor="end" font-size="10" fill="#64748b">52%</text>
<line x1="60" y1="48.0" x2="896" y2="48.0" stroke="#e5e7eb"/>
<text x="52" y="52.0" text-anchor="end" font-size="10" fill="#64748b">70%</text>
<rect x="97.6" y="214.0" width="92.0" height="50.0" rx="6" fill="#cbd5e1"/>
<text x="143.6" y="292" text-anchor="middle" font-size="11" fill="#334155">FIFO</text>
<text x="143.6" y="208.0" text-anchor="middle" font-size="10" fill="#1e40af">16.2%</text>
<rect x="264.8" y="214.0" width="92.0" height="50.0" rx="6" fill="#cbd5e1"/>
<text x="310.8" y="292" text-anchor="middle" font-size="11" fill="#334155">Truncation</text>
<text x="310.8" y="208.0" text-anchor="middle" font-size="10" fill="#1e40af">16.2%</text>
<rect x="432.0" y="142.4" width="92.0" height="121.6" rx="6" fill="#93c5fd"/>
<text x="478.0" y="292" text-anchor="middle" font-size="11" fill="#334155">Summarization</text>
<text x="478.0" y="136.4" text-anchor="middle" font-size="10" fill="#1e40af">39.4%</text>
<rect x="599.2" y="67.4" width="92.0" height="196.6" rx="6" fill="#93c5fd"/>
<text x="645.2" y="292" text-anchor="middle" font-size="11" fill="#334155">H2O</text>
<text x="645.2" y="61.4" text-anchor="middle" font-size="10" fill="#1e40af">63.7%</text>
<rect x="766.4" y="63.1" width="92.0" height="200.9" rx="6" fill="#2563eb"/>
<text x="812.4" y="292" text-anchor="middle" font-size="11" fill="#334155">SuperCompress</text>
<text x="812.4" y="57.1" text-anchor="middle" font-size="10" fill="#1e40af">65.1%</text>
</svg>