<svg xmlns="http://www.w3.org/2000/svg" viewBox="0 0 920 320" role="img" aria-label="Critical context retained at 35% budget">
<rect width="920" height="320" rx="16" fill="#fafafa" stroke="#e5e7eb"/>
<text x="60" y="32" font-family="system-ui,sans-serif" font-size="16" font-weight="600" fill="#0f172a">Critical context retained at 35% budget</text>
<line x1="60" y1="264.0" x2="896" y2="264.0" stroke="#e5e7eb"/>
<text x="52" y="268.0" text-anchor="end" font-size="10" fill="#64748b">0%</text>
<line x1="60" y1="210.0" x2="896" y2="210.0" stroke="#e5e7eb"/>
<text x="52" y="214.0" text-anchor="end" font-size="10" fill="#64748b">25%</text>
<line x1="60" y1="156.0" x2="896" y2="156.0" stroke="#e5e7eb"/>
<text x="52" y="160.0" text-anchor="end" font-size="10" fill="#64748b">50%</text>
<line x1="60" y1="102.0" x2="896" y2="102.0" stroke="#e5e7eb"/>
<text x="52" y="106.0" text-anchor="end" font-size="10" fill="#64748b">75%</text>
<line x1="60" y1="48.0" x2="896" y2="48.0" stroke="#e5e7eb"/>
<text x="52" y="52.0" text-anchor="end" font-size="10" fill="#64748b">100%</text>
<rect x="97.6" y="210.3" width="92.0" height="53.7" rx="6" fill="#cbd5e1"/>
<text x="143.6" y="292" text-anchor="middle" font-size="11" fill="#334155">FIFO</text>
<text x="143.6" y="204.3" text-anchor="middle" font-size="10" fill="#1e40af">24.8%</text>
<rect x="264.8" y="210.3" width="92.0" height="53.7" rx="6" fill="#cbd5e1"/>
<text x="310.8" y="292" text-anchor="middle" font-size="11" fill="#334155">Truncation</text>
<text x="310.8" y="204.3" text-anchor="middle" font-size="10" fill="#1e40af">24.8%</text>
<rect x="432.0" y="133.3" width="92.0" height="130.7" rx="6" fill="#93c5fd"/>
<text x="478.0" y="292" text-anchor="middle" font-size="11" fill="#334155">Summarization</text>
<text x="478.0" y="127.3" text-anchor="middle" font-size="10" fill="#1e40af">60.5%</text>
<rect x="599.2" y="52.5" width="92.0" height="211.5" rx="6" fill="#93c5fd"/>
<text x="645.2" y="292" text-anchor="middle" font-size="11" fill="#334155">H2O</text>
<text x="645.2" y="46.5" text-anchor="middle" font-size="10" fill="#1e40af">97.9%</text>
<rect x="766.4" y="48.0" width="92.0" height="216.0" rx="6" fill="#2563eb"/>
<text x="812.4" y="292" text-anchor="middle" font-size="11" fill="#334155">SuperCompress</text>
<text x="812.4" y="42.0" text-anchor="middle" font-size="10" fill="#1e40af">100.0%</text>
</svg>