<?xml version="1.0" encoding="UTF-8" standalone="no"?>
<!DOCTYPE svg PUBLIC "-//W3C//DTD SVG 1.1//EN" "http://www.w3.org/Graphics/SVG/1.1/DTD/svg11.dtd">
<svg xmlns="http://www.w3.org/2000/svg" version="1.1" viewBox="0.00 0.00 180.00 180.00" width="128" height="128">
<g stroke-width="2.00" fill="none" stroke-linecap="butt">
<path stroke="#ee92a6" vector-effect="non-scaling-stroke" d="
  M 133.55 64.57
  A 0.38 0.38 0.0 0 1 133.74 64.90
  L 133.74 165.30
  A 0.38 0.38 0.0 0 0 134.31 165.63
  L 159.89 150.87
  A 0.38 0.38 0.0 0 0 160.08 150.54
  L 160.08 49.73
  A 0.38 0.38 0.0 0 0 159.89 49.40
  L 90.12 9.12
  A 0.38 0.38 0.0 0 0 89.74 9.12
  L 19.93 49.42
  A 0.38 0.38 0.0 0 0 19.74 49.75
  L 19.74 130.27
  A 0.38 0.38 0.0 0 0 19.93 130.60
  L 89.75 170.91
  A 0.38 0.38 0.0 0 0 90.13 170.91
  L 116.06 155.94
  A 0.38 0.38 0.0 0 0 116.25 155.61
  L 116.25 126.12
  A 0.38 0.38 0.0 0 0 115.68 125.79
  L 90.14 140.54
  A 0.38 0.38 0.0 0 1 89.76 140.54
  L 46.26 115.43
  A 0.38 0.38 0.0 0 1 46.07 115.10
  L 46.07 64.92
  A 0.38 0.38 0.0 0 1 46.26 64.59
  L 89.73 39.49
  A 0.38 0.38 0.0 0 1 90.11 39.49
  L 133.55 64.57"
/>
<path stroke="#ee92a6" vector-effect="non-scaling-stroke" d="
  M 76.92 67.36
  Q 63.87 74.89 63.82 74.98
  Q 63.77 75.06 63.76 90.13
  Q 63.76 105.20 63.81 105.29
  Q 63.86 105.37 76.91 112.91
  Q 89.95 120.45 90.05 120.45
  Q 90.15 120.45 103.21 112.92
  Q 116.26 105.38 116.31 105.30
  Q 116.36 105.21 116.36 90.14
  Q 116.36 75.08 116.31 74.99
  Q 116.26 74.90 103.21 67.37
  Q 90.17 59.83 90.07 59.83
  Q 89.97 59.83 76.92 67.36"
/>
</g>
<path fill="#ffffff" d="
  M 180.00 0.00
  L 180.00 180.00
  L 0.00 180.00
  L 0.00 0.00
  L 180.00 0.00
  Z
  M 133.55 64.57
  A 0.38 0.38 0.0 0 1 133.74 64.90
  L 133.74 165.30
  A 0.38 0.38 0.0 0 0 134.31 165.63
  L 159.89 150.87
  A 0.38 0.38 0.0 0 0 160.08 150.54
  L 160.08 49.73
  A 0.38 0.38 0.0 0 0 159.89 49.40
  L 90.12 9.12
  A 0.38 0.38 0.0 0 0 89.74 9.12
  L 19.93 49.42
  A 0.38 0.38 0.0 0 0 19.74 49.75
  L 19.74 130.27
  A 0.38 0.38 0.0 0 0 19.93 130.60
  L 89.75 170.91
  A 0.38 0.38 0.0 0 0 90.13 170.91
  L 116.06 155.94
  A 0.38 0.38 0.0 0 0 116.25 155.61
  L 116.25 126.12
  A 0.38 0.38 0.0 0 0 115.68 125.79
  L 90.14 140.54
  A 0.38 0.38 0.0 0 1 89.76 140.54
  L 46.26 115.43
  A 0.38 0.38 0.0 0 1 46.07 115.10
  L 46.07 64.92
  A 0.38 0.38 0.0 0 1 46.26 64.59
  L 89.73 39.49
  A 0.38 0.38 0.0 0 1 90.11 39.49
  L 133.55 64.57
  Z
  M 76.92 67.36
  Q 63.87 74.89 63.82 74.98
  Q 63.77 75.06 63.76 90.13
  Q 63.76 105.20 63.81 105.29
  Q 63.86 105.37 76.91 112.91
  Q 89.95 120.45 90.05 120.45
  Q 90.15 120.45 103.21 112.92
  Q 116.26 105.38 116.31 105.30
  Q 116.36 105.21 116.36 90.14
  Q 116.36 75.08 116.31 74.99
  Q 116.26 74.90 103.21 67.37
  Q 90.17 59.83 90.07 59.83
  Q 89.97 59.83 76.92 67.36
  Z"
/>
<path fill="#dc244c" d="
  M 133.55 64.57
  L 90.11 39.49
  A 0.38 0.38 0.0 0 0 89.73 39.49
  L 46.26 64.59
  A 0.38 0.38 0.0 0 0 46.07 64.92
  L 46.07 115.10
  A 0.38 0.38 0.0 0 0 46.26 115.43
  L 89.76 140.54
  A 0.38 0.38 0.0 0 0 90.14 140.54
  L 115.68 125.79
  A 0.38 0.38 0.0 0 1 116.25 126.12
  L 116.25 155.61
  A 0.38 0.38 0.0 0 1 116.06 155.94
  L 90.13 170.91
  A 0.38 0.38 0.0 0 1 89.75 170.91
  L 19.93 130.60
  A 0.38 0.38 0.0 0 1 19.74 130.27
  L 19.74 49.75
  A 0.38 0.38 0.0 0 1 19.93 49.42
  L 89.74 9.12
  A 0.38 0.38 0.0 0 1 90.12 9.12
  L 159.89 49.40
  A 0.38 0.38 0.0 0 1 160.08 49.73
  L 160.08 150.54
  A 0.38 0.38 0.0 0 1 159.89 150.87
  L 134.31 165.63
  A 0.38 0.38 0.0 0 1 133.74 165.30
  L 133.74 64.90
  A 0.38 0.38 0.0 0 0 133.55 64.57
  Z"
/>
<path fill="#dc244c" d="
  M 90.07 59.83
  Q 90.17 59.83 103.21 67.37
  Q 116.26 74.90 116.31 74.99
  Q 116.36 75.08 116.36 90.14
  Q 116.36 105.21 116.31 105.30
  Q 116.26 105.38 103.21 112.92
  Q 90.15 120.45 90.05 120.45
  Q 89.95 120.45 76.91 112.91
  Q 63.86 105.37 63.81 105.29
  Q 63.76 105.20 63.76 90.13
  Q 63.77 75.06 63.82 74.98
  Q 63.87 74.89 76.92 67.36
  Q 89.97 59.83 90.07 59.83
  Z"
/>
</svg>